<svg width="32" height="32" viewBox="0 0 32 32" fill="none" xmlns="http://www.w3.org/2000/svg">
<path d="M18.2994 2.11806C16.0998 0.845681 13.2871 1.60074 12.0171 3.80456L0.61696 23.5877C-0.652977 25.7915 0.100648 28.6095 2.30027 29.8819C4.4999 31.1542 7.31259 30.3992 8.58259 28.1954L19.9828 8.41224C21.2527 6.20843 20.499 3.39043 18.2994 2.11806Z" fill="#FFC107"/>
<path d="M18.2994 2.11807C17.2719 1.52375 16.1108 1.372 15.0354 1.60344C15.4921 1.70194 15.9415 1.8715 16.3678 2.11807C18.5674 3.39044 19.3211 6.20844 18.0511 8.41225L6.65094 28.1954C5.97419 29.3698 4.85932 30.1325 3.63257 30.3965C5.53219 30.8063 7.55869 29.9721 8.58251 28.1954L19.9826 8.41225C21.2527 6.20844 20.499 3.39044 18.2994 2.11807Z" fill="#FFB300"/>
<path d="M4.59412 30.5C7.13139 30.5 9.18825 28.4392 9.18825 25.8972C9.18825 23.3551 7.13139 21.2944 4.59412 21.2944C2.05686 21.2944 0 23.3551 0 25.8972C0 28.4392 2.05686 30.5 4.59412 30.5Z" fill="#4CAF50"/>
<path d="M3.63257 30.3966C3.63232 30.3971 3.63219 30.3976 3.632 30.3981C3.94238 30.4644 4.264 30.5 4.59413 30.5C7.13138 30.5 9.18825 28.4392 9.18825 25.8972C9.18825 25.3324 9.08625 24.7917 8.9005 24.2917L6.651 28.1954C5.97419 29.3698 4.85932 30.1325 3.63257 30.3966Z" fill="#43A047"/>
<path d="M31.3831 23.5877L19.9829 3.80462C18.713 1.6008 15.9003 0.845742 13.7006 2.11812C11.501 3.39049 10.7473 6.20849 12.0173 8.4123L23.4175 28.1954C24.6874 30.3992 27.5001 31.1543 29.6998 29.8819C31.8994 28.6096 32.6531 25.7915 31.3831 23.5877Z" fill="#2196F3"/>
<path d="M31.3831 23.5877L19.9829 3.80462C18.9591 2.02793 16.9326 1.19368 15.033 1.60349C16.2597 1.86749 17.3746 2.63024 18.0514 3.80462L29.4516 23.5877C30.7216 25.7916 29.9679 28.6096 27.7683 29.8819C27.3419 30.1285 26.8926 30.2981 26.4359 30.3966C27.5112 30.628 28.6724 30.4762 29.6999 29.8819C31.8994 28.6096 32.6531 25.7915 31.3831 23.5877Z" fill="#1E88E5"/>
</svg>
