<svg width="40" height="40" viewBox="0 0 40 40" fill="none" xmlns="http://www.w3.org/2000/svg">
<g id="bitcoin (1) 1">
<path id="Vector" d="M20 2.78296C10.5069 2.78296 2.78284 10.507 2.78284 20.0001C2.78284 29.4932 10.5069 37.2173 20 37.2173C29.4931 37.2173 37.2171 29.4932 37.2171 20.0001C37.2171 10.507 29.4931 2.78296 20 2.78296ZM20 35.0651C11.6927 35.0651 4.93498 28.3074 4.93498 20.0001C4.93498 11.6928 11.6927 4.9351 20 4.9351C28.3073 4.9351 35.065 11.6928 35.065 20.0001C35.065 28.3074 28.3073 35.0651 20 35.0651Z" fill="#4F4F4F"/>
<path id="Vector_2" d="M24.3003 19.6588C24.9934 18.9408 25.4252 17.9669 25.4252 16.89C25.4252 14.8374 23.8649 13.1598 21.8709 12.9358V12.0028C21.8709 11.5123 21.4728 11.1143 20.9823 11.1143C20.4919 11.1143 20.0938 11.5123 20.0938 12.0028V12.8914H18.3166V12.0028C18.3166 11.5123 17.9185 11.1143 17.4281 11.1143C16.9376 11.1143 16.5395 11.5123 16.5395 12.0028V12.8914H15.6509C15.1604 12.8914 14.7623 13.2895 14.7623 13.78V26.22C14.7623 26.7105 15.1604 27.1086 15.6509 27.1086H16.5395V27.9972C16.5395 28.4877 16.9376 28.8857 17.4281 28.8857C17.9185 28.8857 18.3166 28.4877 18.3166 27.9972V27.1086H20.0938V27.9972C20.0938 28.4877 20.4919 28.8857 20.9823 28.8857C21.4728 28.8857 21.8709 28.4877 21.8709 27.9972V27.1086H22.3152C24.5206 27.1086 26.3138 25.3154 26.3138 23.11C26.3138 21.6296 25.4963 20.3519 24.3003 19.6588ZM16.5395 14.6686H21.4266C22.6511 14.6686 23.6481 15.6655 23.6481 16.89C23.6481 18.1144 22.6511 19.1114 21.4266 19.1114H16.5395V14.6686ZM22.3152 25.3314H16.5395V20.8886H21.4266H22.3152C23.5397 20.8886 24.5366 21.8855 24.5366 23.11C24.5366 24.3345 23.5397 25.3314 22.3152 25.3314Z" fill="#4F4F4F"/>
</g>
</svg>
