<svg width="48" height="48" viewBox="0 0 48 48" fill="none" xmlns="http://www.w3.org/2000/svg">
<g clip-path="url(#clip0_74_321)">
<path d="M17.7941 27.4755C18.1603 27.8416 18.7539 27.8416 19.1201 27.4755L25.4841 21.1114L29.5307 25.1581C29.8969 25.5242 30.4905 25.5243 30.8566 25.1581L37.5924 18.4223V19.9089C37.6419 21.1528 39.4182 21.1519 39.4674 19.9089V16.1589C39.4674 15.6412 39.0476 15.2214 38.5299 15.2214H34.7799C33.536 15.271 33.5369 17.0473 34.7799 17.0964H36.2666L30.1936 23.1693L26.147 19.1226C25.7978 18.7595 25.1703 18.7595 24.8211 19.1226L17.7941 26.1496C17.4281 26.5158 17.4281 27.1093 17.7941 27.4755Z" fill="#6025D8"/>
<path d="M40.4063 0H16.0313C14.4805 0 13.2188 1.26168 13.2188 2.81249V23.3803C13.2683 24.6242 15.0447 24.6232 15.0938 23.3803V5.62498H21.817C22.2039 6.71632 23.2465 7.49997 24.4688 7.49997H31.9688C33.191 7.49997 34.2336 6.71632 34.6205 5.62498H41.3437V42.375H15.0938V38.8489C15.0443 37.605 13.2679 37.606 13.2188 38.8489V45.1875C13.2188 46.7383 14.4805 48 16.0313 48H40.4063C41.957 48 43.2187 46.7383 43.2187 45.1875V2.81249C43.2187 1.26168 41.957 0 40.4063 0ZM33.8437 3.74999C33.326 3.74999 32.9062 4.1697 32.9062 4.68748C32.9062 5.20442 32.4858 5.62498 31.9688 5.62498H24.4688C23.9518 5.62498 23.5313 5.20442 23.5313 4.68748C23.5313 4.1697 23.1115 3.74999 22.5939 3.74999H15.0939L15.0938 2.81249C15.0938 2.29555 15.5143 1.87499 16.0313 1.87499H40.4063C40.9232 1.87499 41.3437 2.29555 41.3437 2.81249V3.74999H33.8437ZM41.3437 45.1875C41.3437 45.7044 40.9232 46.125 40.4063 46.125H16.0313C15.5143 46.125 15.0938 45.7044 15.0938 45.1875V44.25H41.3437V45.1875Z" fill="#6025D8"/>
<path d="M37.5946 37.6873H28.2197C26.9758 37.7368 26.9768 39.5131 28.2197 39.5623H37.5946C38.8385 39.5127 38.8376 37.7364 37.5946 37.6873Z" fill="#6025D8"/>
<path d="M37.5946 33.9373H29.4697C28.2258 33.9868 28.2268 35.7631 29.4697 35.8123H37.5946C38.8384 35.7627 38.8375 33.9863 37.5946 33.9373Z" fill="#6025D8"/>
<path d="M37.5945 30.1873H30.7197C29.4758 30.2368 29.4768 32.0131 30.7197 32.0623H37.5945C38.8384 32.0127 38.8374 30.2363 37.5945 30.1873Z" fill="#6025D8"/>
<path d="M18.8447 12.1875H28.2195C29.4634 12.1379 29.4625 10.3616 28.2195 10.3125H18.8447C17.6008 10.3621 17.6018 12.1385 18.8447 12.1875Z" fill="#6025D8"/>
<path d="M18.8447 15.9377H26.9696C28.2134 15.8882 28.2125 14.1119 26.9696 14.0627H18.8447C17.6008 14.1122 17.6018 15.8886 18.8447 15.9377Z" fill="#6025D8"/>
<path fill-rule="evenodd" clip-rule="evenodd" d="M14.1563 40.4897C19.3199 40.4897 23.5313 36.2782 23.5313 31.1147C23.0017 18.6766 5.30905 18.6802 4.78133 31.1148C4.78133 36.2783 8.99276 40.4897 14.1563 40.4897Z" fill="#FFF69B"/>
<path d="M15.0199 30.4578L14.0095 30.0394C13.5359 29.8432 13.3103 29.2983 13.5065 28.8246C13.6007 28.597 13.7797 28.4191 14.0104 28.3235C14.2413 28.2279 14.4937 28.2272 14.7211 28.3214L15.2263 28.5307C15.7046 28.7289 16.2532 28.5017 16.4512 28.0233C16.6494 27.545 16.4222 26.9965 15.9439 26.7983L15.4386 26.5891C15.3252 26.5421 15.21 26.503 15.0934 26.4715V25.9584C15.0439 24.7146 13.2675 24.7155 13.2184 25.9584V26.6233C12.5607 26.9175 12.0496 27.4417 11.7742 28.107C11.1823 29.5357 11.8631 31.1797 13.2919 31.7716L14.3023 32.19C14.776 32.3861 15.0016 32.9311 14.8054 33.4048C14.7112 33.6323 14.5322 33.8103 14.3015 33.9058C14.0706 34.0014 13.8182 34.0021 13.5908 33.9079L13.0856 33.6986C12.6075 33.5005 12.0588 33.7276 11.8607 34.206C11.6625 34.6843 11.8897 35.2327 12.368 35.4309L12.8733 35.6403C12.9867 35.6872 13.1019 35.7263 13.2184 35.7578V36.2709C13.2679 37.5148 15.0443 37.5139 15.0934 36.2709V35.6062C15.7511 35.312 16.2623 34.7878 16.5378 34.1224C17.1296 32.6935 16.4487 31.0496 15.0199 30.4578Z" fill="#6025D8"/>
</g>
<defs>
<clipPath id="clip0_74_321">
<rect width="48" height="48" fill="white"/>
</clipPath>
</defs>
</svg>
