<svg width="40" height="40" viewBox="0 0 40 40" fill="none" xmlns="http://www.w3.org/2000/svg">
<g id="credit-card (1) 1">
<path id="Vector" d="M39.2 13.6001H0.799988V16.8001H39.2V13.6001Z" fill="#4F4F4F"/>
<path id="Vector_2" d="M39.2 12.8H0.8C0.358437 12.8 0 13.1584 0 13.6V16.8C0 17.2417 0.358437 17.6 0.8 17.6H39.2C39.6416 17.6 40 17.2417 40 16.8V13.6C40 13.1584 39.6416 12.8 39.2 12.8ZM38.4 16H1.6V14.4H38.4V16Z" fill="#4F4F4F"/>
<g id="Group">
<g id="Group_2">
<path id="Vector_3" d="M37.6 6.3999H2.4C1.0768 6.3999 0 7.4767 0 8.7999V31.1999C0 32.5231 1.0768 33.5999 2.4 33.5999H37.6C38.9232 33.5999 40 32.5231 40 31.1999V8.7999C40 7.4767 38.9232 6.3999 37.6 6.3999ZM38.4 31.1999C38.4 31.6399 38.04 31.9999 37.6 31.9999H2.4C1.95844 31.9999 1.6 31.6399 1.6 31.1999V8.7999C1.6 8.35826 1.95844 7.9999 2.4 7.9999H37.6C38.04 7.9999 38.4 8.35826 38.4 8.7999V31.1999Z" fill="#4F4F4F"/>
</g>
</g>
<g id="Group_3">
<g id="Group_4">
<path id="Vector_4" d="M15.2 23.5352H7.19999C6.75843 23.5352 6.39999 23.8936 6.39999 24.3352C6.39999 24.7767 6.75843 25.1352 7.19999 25.1352H15.2C15.6416 25.1352 16 24.7767 16 24.3352C16 23.8936 15.6416 23.5352 15.2 23.5352Z" fill="#4F4F4F"/>
</g>
</g>
</g>
</svg>
