<svg width="41" height="47" viewBox="0 0 41 47" fill="none" xmlns="http://www.w3.org/2000/svg">
<path d="M4.64169 42.1781C27.354 37.6921 32.3777 41.1323 31.9785 43.6233C31.9681 43.6882 31.947 43.7516 31.9191 43.811C29.3657 49.2436 14.1708 46.6503 4.545 43.9924C3.56076 43.7206 3.63996 42.3759 4.64169 42.1781Z" fill="#6E2CF4"/>
<path d="M28.3654 0.653511C32.4199 3.1479 37.6888 13.4068 40.3915 19.4857C40.7055 20.1919 40.1388 20.851 39.4799 20.4471C33.2417 16.6232 23.2842 -2.47253 28.3654 0.653511Z" fill="#6E2CF4"/>
<path d="M0.277227 10.0291C2.09479 10.6551 20.2307 22.011 31.9897 29.4558C32.904 30.0347 32.3871 31.3187 31.3381 31.053C10.9987 25.9013 -2.09752 9.21116 0.277227 10.0291Z" fill="#6E2CF4"/>
</svg>
