<svg width="98" height="98" viewBox="0 0 98 98" fill="none" xmlns="http://www.w3.org/2000/svg">
<path d="M28.3209 32.9198C31.5523 38.2569 48.7611 48.424 48.7611 48.424C48.7611 48.424 47.7283 28.463 44.4969 23.1258C41.2655 17.7887 35.0247 15.6546 30.5579 18.3591C26.091 21.0636 25.0895 27.5827 28.3209 32.9198Z" fill="#6E2CF4"/>
<path d="M64.821 28.3205C59.4838 31.552 49.3167 48.7607 49.3167 48.7607C49.3167 48.7607 69.2778 47.728 74.6149 44.4965C79.9521 41.2651 82.0862 35.0244 79.3817 30.5575C76.6772 26.0906 70.1581 25.0891 64.821 28.3205Z" fill="#6E2CF4"/>
<path d="M33.0626 69.6554C38.3997 66.424 48.5668 49.2152 48.5668 49.2152C48.5668 49.2152 28.6057 50.248 23.2686 53.4794C17.9315 56.7108 15.7973 62.9516 18.5018 67.4184C21.2064 71.8853 27.7254 72.8869 33.0626 69.6554Z" fill="#6E2CF4"/>
<path d="M69.6544 64.679C66.423 59.3419 49.2143 49.1748 49.2143 49.1748C49.2143 49.1748 50.247 69.1359 53.4784 74.473C56.7099 79.8101 62.9506 81.9443 67.4175 79.2397C71.8844 76.5352 72.8859 70.0161 69.6544 64.679Z" fill="#6E2CF4"/>
</svg>
