<svg width="98" height="98" viewBox="0 0 98 98" fill="none" xmlns="http://www.w3.org/2000/svg">
<path d="M28.3215 32.9201C31.5529 38.2572 48.7617 48.4243 48.7617 48.4243C48.7617 48.4243 47.729 28.4633 44.4975 23.1261C41.2661 17.789 35.0254 15.6549 30.5585 18.3594C26.0916 21.0639 25.0901 27.583 28.3215 32.9201Z" fill="#33CCC5"/>
<path d="M64.8216 28.321C59.4845 31.5525 49.3174 48.7612 49.3174 48.7612C49.3174 48.7612 69.2784 47.7285 74.6156 44.497C79.9527 41.2656 82.0868 35.0249 79.3823 30.558C76.6778 26.0911 70.1587 25.0896 64.8216 28.321Z" fill="#33CCC5"/>
<path d="M33.0632 69.6558C38.4003 66.4244 48.5674 49.2156 48.5674 49.2156C48.5674 49.2156 28.6063 50.2483 23.2692 53.4798C17.9321 56.7112 15.7979 62.9519 18.5025 67.4188C21.207 71.8857 27.726 72.8872 33.0632 69.6558Z" fill="#33CCC5"/>
<path d="M69.6551 64.6795C66.4236 59.3424 49.2149 49.1753 49.2149 49.1753C49.2149 49.1753 50.2476 69.1363 53.479 74.4735C56.7105 79.8106 62.9512 81.9448 67.4181 79.2402C71.885 76.5357 72.8865 70.0166 69.6551 64.6795Z" fill="#33CCC5"/>
</svg>
