<svg width="48" height="48" viewBox="0 0 48 48" fill="none" xmlns="http://www.w3.org/2000/svg">
<g clip-path="url(#clip0_74_262)">
<path d="M24.663 0.27457C24.2968 -0.0915234 23.7034 -0.0915234 23.3371 0.27457L19.5871 4.02457C19.221 4.39066 19.221 4.98429 19.5871 5.35048C19.9533 5.71657 20.5467 5.71657 20.913 5.35048L23.0626 3.20088V10.5003C23.1121 11.7441 24.8885 11.7432 24.9376 10.5003V3.20088L27.0872 5.35048C27.4534 5.71657 28.0469 5.71657 28.4131 5.35048C28.7792 4.98438 28.7792 4.39076 28.4131 4.02457L24.663 0.27457Z" fill="#6025D8"/>
<path d="M9.9567 8.62988H12.9966C14.2405 8.58029 14.2396 6.80401 12.9966 6.75488H7.69339C7.1757 6.75488 6.75589 7.1746 6.75589 7.69238V12.9957C6.80539 14.2396 8.58176 14.2387 8.63089 12.9957V9.95579L13.598 14.9229C13.9642 15.289 14.5578 15.289 14.924 14.9229C15.29 14.5569 15.29 13.9632 14.924 13.597L9.9567 8.62988Z" fill="#6025D8"/>
<path d="M3.20091 24.9376H10.5002C11.7441 24.888 11.7431 23.1117 10.5002 23.0626H3.20091L5.35051 20.913C5.7166 20.5469 5.7166 19.9533 5.35051 19.5871C4.98432 19.221 4.39088 19.221 4.0246 19.5871L0.274601 23.3371C-0.0914929 23.7032 -0.0914929 24.2968 0.274601 24.663L4.0246 28.413C4.39079 28.7791 4.98432 28.7791 5.35051 28.413C5.7166 28.0469 5.7166 27.4533 5.35051 27.0871L3.20091 24.9376Z" fill="#6025D8"/>
<path d="M13.598 33.0771L8.63089 38.0443V35.0044C8.58139 33.7605 6.80501 33.7614 6.75589 35.0044V40.3077C6.75589 40.8255 7.1757 41.2452 7.69339 41.2452H12.9966C14.2405 41.1956 14.2396 39.4193 12.9966 39.3702H9.9567L14.924 34.4031C15.29 34.037 15.29 33.4433 14.924 33.0771C14.5579 32.7111 13.9642 32.7111 13.598 33.0771Z" fill="#6025D8"/>
<path d="M27.0872 42.6496L24.9376 44.7992V37.4998C24.8881 36.2559 23.1117 36.2569 23.0626 37.4998V44.7992L20.913 42.6496C20.5468 42.2835 19.9534 42.2835 19.5871 42.6496C19.221 43.0157 19.221 43.6093 19.5871 43.9755L23.3371 47.7255C23.7033 48.0916 24.2968 48.0916 24.663 47.7255L28.413 43.9755C28.7791 43.6094 28.7791 43.0158 28.413 42.6496C28.0468 42.2835 27.4534 42.2835 27.0872 42.6496Z" fill="#6025D8"/>
<path d="M40.308 34.0669C39.7903 34.0669 39.3705 34.4866 39.3705 35.0044V38.0444L34.4032 33.0772C34.0371 32.7111 33.4436 32.7111 33.0773 33.0772C32.7112 33.4433 32.7112 34.0369 33.0773 34.4031L38.0446 39.3703H35.0046C33.7608 39.4199 33.7617 41.1962 35.0046 41.2453H40.308C40.8257 41.2453 41.2455 40.8256 41.2455 40.3078V35.0045C41.2455 34.4866 40.8258 34.0669 40.308 34.0669Z" fill="#6025D8"/>
<path d="M47.7246 23.3372L43.9746 19.5872C43.6084 19.2211 43.015 19.2211 42.6487 19.5872C42.2826 19.9533 42.2826 20.5469 42.6487 20.9131L44.7983 23.0627H37.499C36.2551 23.1123 36.2561 24.8886 37.499 24.9377H44.7983L42.6487 27.0873C42.2826 27.4534 42.2826 28.047 42.6487 28.4132C43.0149 28.7793 43.6084 28.7793 43.9746 28.4132L47.7246 24.6632C48.0908 24.2969 48.0908 23.7033 47.7246 23.3372Z" fill="#6025D8"/>
<path d="M33.7403 15.1975C33.9803 15.1975 34.2201 15.106 34.4032 14.9229L39.3705 9.9557V12.9957C39.42 14.2396 41.1964 14.2387 41.2455 12.9957V7.69238C41.2455 7.1746 40.8257 6.75488 40.308 6.75488H35.0046C33.7608 6.80448 33.7617 8.58076 35.0046 8.62988H38.0446L33.0773 13.5971C32.7112 13.9632 32.7112 14.5569 33.0773 14.923C33.2605 15.106 33.5003 15.1975 33.7403 15.1975Z" fill="#6025D8"/>
<path fill-rule="evenodd" clip-rule="evenodd" d="M24.0001 38.0624C31.7454 38.0624 38.0625 31.7453 38.0625 24C37.268 5.34292 10.7293 5.34845 9.93764 24.0001C9.93764 31.7453 16.2548 38.0624 24.0001 38.0624Z" fill="#B2F0FB"/>
<path d="M24.0001 12.75C17.7968 12.75 12.75 17.7967 12.75 23.9999C13.3679 38.9245 34.6343 38.9203 35.25 23.9998C35.25 17.7967 30.2033 12.75 24.0001 12.75ZM31.2997 29.8765C30.3839 29.0936 29.3613 28.4707 28.2673 28.0224C28.4105 27.0288 28.4991 25.9877 28.5322 24.9375H33.3285C33.1431 26.7962 32.4126 28.4967 31.2997 29.8765ZM14.6716 24.9375H19.4679C19.501 25.9877 19.5896 27.0288 19.7329 28.0224C18.6387 28.4707 17.6162 29.0936 16.7004 29.8765C15.5875 28.4967 14.857 26.7961 14.6716 24.9375ZM16.7004 18.1235C17.6162 18.9064 18.6388 19.5293 19.7329 19.9776C19.5896 20.9713 19.501 22.0124 19.4679 23.0625H14.6716C14.857 21.2039 15.5875 19.5033 16.7004 18.1235ZM24.0001 27.1875C23.1646 27.1875 22.3425 27.2783 21.5452 27.455C21.44 26.6523 21.3719 25.8074 21.3434 24.9375H26.6566C26.6281 25.8074 26.56 26.6524 26.4548 27.455C25.6575 27.2783 24.8355 27.1875 24.0001 27.1875ZM26.1294 29.3044C25.9973 29.8889 25.8423 30.4368 25.6658 30.9387C25.0895 32.5772 24.3982 33.3235 24 33.3235C23.6017 33.3235 22.9105 32.5773 22.3341 30.9387C22.1576 30.4368 22.0026 29.889 21.8705 29.3044C23.2457 28.9825 24.7544 28.9825 26.1294 29.3044ZM21.3434 23.0625C21.3719 22.1926 21.44 21.3477 21.5452 20.5451C23.1332 20.901 24.8669 20.901 26.4548 20.5451C26.56 21.3478 26.6281 22.1926 26.6566 23.0625H21.3434ZM24.0001 18.9376C23.2745 18.9376 22.5612 18.8554 21.8706 18.6956C22.0027 18.1111 22.1577 17.5632 22.3342 17.0613C22.9105 15.4228 23.6018 14.6765 24.0001 14.6765C24.8722 14.7101 25.8475 17.2449 26.1294 18.6955C25.4389 18.8554 24.7256 18.9376 24.0001 18.9376ZM26.8531 15.0688C28.0081 15.4386 29.0663 16.0266 29.979 16.7843C29.3443 17.3114 28.6502 17.7477 27.9132 18.0865C27.644 16.9409 27.29 15.9096 26.8531 15.0688ZM20.0869 18.0865C19.3498 17.7477 18.6557 17.3114 18.021 16.7843C18.9337 16.0267 19.9919 15.4386 21.1469 15.0688C20.71 15.9097 20.356 16.9409 20.0869 18.0865ZM20.0869 29.9135C20.356 31.0591 20.71 32.0902 21.1469 32.9311C19.992 32.5612 18.9337 31.9732 18.0211 31.2156C18.6557 30.6886 19.3498 30.2524 20.0869 29.9135ZM27.9132 29.9135C28.6503 30.2523 29.3443 30.6886 29.979 31.2156C29.0663 31.9732 28.0081 32.5613 26.8531 32.9311C27.2901 32.0903 27.644 31.0592 27.9132 29.9135ZM28.5321 23.0625C28.499 22.0124 28.4104 20.9713 28.2672 19.9776C29.3613 19.5293 30.3838 18.9064 31.2997 18.1235C32.4127 19.5033 33.1432 21.2039 33.3285 23.0625H28.5321Z" fill="#6025D8"/>
</g>
<defs>
<clipPath id="clip0_74_262">
<rect width="48" height="48" fill="white"/>
</clipPath>
</defs>
</svg>
