<svg width="136" height="5" viewBox="0 0 136 5" fill="none" xmlns="http://www.w3.org/2000/svg">
<path d="M16.7658 4.33962C31.6781 3.67925 47.1751 3.39623 62.3797 3.11321L105.362 2.54717C105.362 2.54717 110.918 2.35849 116.473 2.16981C122.029 1.98113 127.584 1.69811 126.999 1.69811C136.064 1.13208 141.619 0.377358 126.999 0.283019C118.228 0.0943396 105.947 0 105.947 0L98.3445 0.0943396C84.8943 0.188679 71.1516 0.377358 57.409 0.566038C43.6663 0.849057 29.6313 1.13208 15.8886 1.69811C13.5494 1.79245 11.2103 1.98113 8.8711 2.07547C6.82432 2.16981 4.48515 2.35849 2.14597 2.45283C1.85357 2.45283 1.56118 2.54717 1.56118 2.64151C-1.94759 4.0566 1.26878 4.81132 3.31556 5C3.60796 5 3.60796 5 3.90035 5C5.94713 4.90566 8.28631 4.71698 10.3331 4.62264C12.6723 4.5283 14.719 4.43396 16.7658 4.33962Z" fill="#6E2CF4"/>
</svg>
