<svg width="47" height="6" viewBox="0 0 47 6" fill="none" xmlns="http://www.w3.org/2000/svg">
<g clip-path="url(#clip0_74_387)">
<path d="M5.70072 4.69998C10.8007 3.99998 16.1007 3.69998 21.3007 3.39998L36.0007 2.79998C36.0007 2.79998 37.9007 2.59998 39.8007 2.39998C41.7007 2.19998 43.6007 1.89998 43.4007 1.89998C46.5007 1.29998 48.4007 0.499976 43.4007 0.399976C40.4007 0.199976 36.2007 0.0999756 36.2007 0.0999756L33.6007 0.199976C29.0007 0.299976 24.3007 0.499976 19.6007 0.699976C14.9007 0.999976 10.1007 1.29998 5.40072 1.89998C4.60072 1.99998 3.80072 2.19998 3.00072 2.29998C2.30072 2.39998 1.50072 2.59998 0.700721 2.69998C0.600721 2.69998 0.500721 2.79998 0.500721 2.89998C-0.699279 4.39998 0.400721 5.19998 1.10072 5.39998C1.20072 5.39998 1.20072 5.39998 1.30072 5.39998C2.00072 5.29998 2.80072 5.09998 3.50072 4.99998C4.30072 4.89998 5.00072 4.79998 5.70072 4.69998Z" fill="#6E2CF4"/>
</g>
<defs>
<clipPath id="clip0_74_387">
<rect width="46.6" height="5.5" fill="white"/>
</clipPath>
</defs>
</svg>
