<svg width="32" height="32" viewBox="0 0 32 32" fill="none" xmlns="http://www.w3.org/2000/svg">
<g clip-path="url(#clip0_120_260)">
<path d="M27.6364 0H4.36364C1.95367 0 0 1.95367 0 4.36364V27.6364C0 30.0463 1.95367 32 4.36364 32H27.6364C30.0463 32 32 30.0463 32 27.6364V4.36364C32 1.95367 30.0463 0 27.6364 0Z" fill="#0077B5"/>
<path d="M11.5273 8.72727C11.5273 9.26668 11.3673 9.79397 11.0676 10.2425C10.768 10.691 10.342 11.0405 9.84368 11.2469C9.34534 11.4534 8.79697 11.5074 8.26793 11.4021C7.73889 11.2969 7.25294 11.0372 6.87152 10.6557C6.49011 10.2743 6.23036 9.78838 6.12513 9.25934C6.0199 8.7303 6.0739 8.18194 6.28033 7.68359C6.48675 7.18525 6.83631 6.7593 7.28481 6.45963C7.7333 6.15995 8.26059 6 8.8 6C9.52332 6 10.217 6.28734 10.7285 6.7988C11.2399 7.31026 11.5273 8.00396 11.5273 8.72727Z" fill="white"/>
<path d="M10.9091 13.2727V25.3218C10.9096 25.4107 10.8925 25.4988 10.8588 25.5811C10.8251 25.6633 10.7755 25.7381 10.7128 25.8012C10.6501 25.8642 10.5756 25.9142 10.4935 25.9483C10.4114 25.9824 10.3234 26 10.2345 26H7.35999C7.2711 26.0003 7.18304 25.9829 7.10087 25.949C7.01871 25.9151 6.94405 25.8653 6.88119 25.8024C6.81834 25.7396 6.76853 25.6649 6.73462 25.5828C6.70072 25.5006 6.68339 25.4125 6.68363 25.3236V13.2727C6.68363 13.0934 6.75489 12.9213 6.88173 12.7945C7.00857 12.6676 7.18061 12.5964 7.35999 12.5964H10.2345C10.4136 12.5969 10.5852 12.6683 10.7116 12.7951C10.8381 12.9219 10.9091 13.0937 10.9091 13.2727Z" fill="white"/>
<path d="M25.1218 19.1491V24.9818C25.1221 25.0635 25.1061 25.1445 25.075 25.2201C25.0438 25.2956 24.998 25.3643 24.9402 25.422C24.8824 25.4798 24.8138 25.5256 24.7382 25.5568C24.6627 25.588 24.5817 25.6039 24.5 25.6036H21.4091C21.3274 25.6039 21.2464 25.588 21.1708 25.5568C21.0953 25.5256 21.0267 25.4798 20.9689 25.422C20.9111 25.3643 20.8653 25.2956 20.8341 25.2201C20.803 25.1445 20.787 25.0635 20.7873 24.9818V19.3291C20.7873 18.4855 21.0345 15.6345 18.5818 15.6345C16.6818 15.6345 16.2945 17.5855 16.2182 18.4618V24.9818C16.2182 25.1452 16.1539 25.302 16.0393 25.4183C15.9246 25.5347 15.7688 25.6012 15.6055 25.6036H12.62C12.5384 25.6036 12.4577 25.5875 12.3823 25.5563C12.307 25.525 12.2385 25.4792 12.181 25.4214C12.1234 25.3636 12.0777 25.2951 12.0467 25.2196C12.0156 25.1442 11.9998 25.0634 12 24.9818V12.8236C11.9998 12.7421 12.0156 12.6612 12.0467 12.5858C12.0777 12.5104 12.1234 12.4418 12.181 12.3841C12.2385 12.3263 12.307 12.2805 12.3823 12.2492C12.4577 12.2179 12.5384 12.2018 12.62 12.2018H15.6055C15.7704 12.2018 15.9285 12.2673 16.0451 12.3839C16.1618 12.5006 16.2273 12.6587 16.2273 12.8236V13.8745C16.9327 12.8164 17.9782 12 20.2091 12C25.1509 12 25.1218 16.6145 25.1218 19.1491Z" fill="white"/>
</g>
<defs>
<clipPath id="clip0_120_260">
<rect width="32" height="32" fill="white"/>
</clipPath>
</defs>
</svg>
