<svg width="24" height="24" viewBox="0 0 24 24" fill="none" xmlns="http://www.w3.org/2000/svg">
<g id="ion:mail">
<path id="Vector" d="M21 3H3C2.20461 3.00081 1.44204 3.30278 0.879619 3.83964C0.317195 4.3765 0.000850835 5.1044 0 5.86364V18.1364C0.000850835 18.8956 0.317195 19.6235 0.879619 20.1604C1.44204 20.6972 2.20461 20.9992 3 21H21C21.7954 20.9992 22.558 20.6972 23.1204 20.1604C23.6828 19.6235 23.9991 18.8956 24 18.1364V5.86364C23.9991 5.1044 23.6828 4.3765 23.1204 3.83964C22.558 3.30278 21.7954 3.00081 21 3ZM20.2404 7.73676L12.5261 13.464C12.3756 13.5757 12.1905 13.6363 12 13.6363C11.8095 13.6363 11.6244 13.5757 11.4739 13.464L3.75964 7.73676C3.66901 7.67143 3.59288 7.58955 3.53568 7.49589C3.47848 7.40222 3.44135 7.29865 3.42646 7.19117C3.41156 7.08369 3.41918 6.97446 3.44889 6.86982C3.4786 6.76518 3.5298 6.66722 3.59952 6.58163C3.66923 6.49604 3.75607 6.42454 3.85499 6.37126C3.95391 6.31799 4.06293 6.28401 4.17572 6.2713C4.28852 6.25859 4.40283 6.26741 4.51203 6.29724C4.62122 6.32707 4.72311 6.37731 4.81179 6.44506L12 11.7816L19.1882 6.44506C19.368 6.31549 19.5939 6.25866 19.8172 6.28686C20.0405 6.31507 20.2432 6.42603 20.3814 6.59577C20.5197 6.7655 20.5824 6.98036 20.556 7.19388C20.5296 7.4074 20.4162 7.60242 20.2404 7.73676Z" fill="#1E1E1E"/>
</g>
</svg>
