<svg width="20" height="20" viewBox="0 0 20 20" fill="none" xmlns="http://www.w3.org/2000/svg">
<g id="ion:mail">
<path id="Vector" d="M17.5 2.5H2.5C1.83718 2.50068 1.2017 2.75231 0.733016 3.1997C0.264329 3.64708 0.000709029 4.25367 0 4.88636V15.1136C0.000709029 15.7463 0.264329 16.3529 0.733016 16.8003C1.2017 17.2477 1.83718 17.4993 2.5 17.5H17.5C18.1628 17.4993 18.7983 17.2477 19.267 16.8003C19.7357 16.3529 19.9993 15.7463 20 15.1136V4.88636C19.9993 4.25367 19.7357 3.64708 19.267 3.1997C18.7983 2.75231 18.1628 2.50068 17.5 2.5ZM16.867 6.4473L10.4384 11.22C10.313 11.3131 10.1588 11.3636 10 11.3636C9.84122 11.3636 9.68696 11.3131 9.56161 11.22L3.13304 6.4473C3.05751 6.39286 2.99407 6.32462 2.9464 6.24657C2.89873 6.16852 2.86779 6.0822 2.85538 5.99264C2.84296 5.90308 2.84932 5.81205 2.87408 5.72485C2.89884 5.63765 2.9415 5.55602 2.9996 5.48469C3.05769 5.41337 3.13006 5.35378 3.21249 5.30938C3.29492 5.26499 3.38577 5.23667 3.47977 5.22608C3.57376 5.21549 3.66903 5.22284 3.76002 5.2477C3.85102 5.27256 3.93593 5.31443 4.00982 5.37088L10 9.81804L15.9902 5.37088C16.14 5.26291 16.3283 5.21555 16.5143 5.23905C16.7004 5.26256 16.8693 5.35503 16.9845 5.49647C17.0997 5.63792 17.152 5.81697 17.13 5.9949C17.108 6.17283 17.0135 6.33535 16.867 6.4473Z" fill="#1E1E1E"/>
</g>
</svg>
