<svg width="32" height="32" viewBox="0 0 32 32" fill="none" xmlns="http://www.w3.org/2000/svg">
<g clip-path="url(#clip0_120_269)">
<path d="M28.9206 25.1104C28.9206 25.1104 28.764 27.4074 26.6758 27.4074C25.0632 27.4074 23.9618 26.1774 22.9305 24.5801C25.8597 22.0233 27.7198 18.2052 27.7198 13.9386C27.7199 6.24054 21.6664 0 14.199 0C6.73153 0 0.677979 6.24053 0.677979 13.9386C0.677979 21.6367 6.73153 27.8773 14.199 27.8773C15.5542 27.8773 16.8623 27.6708 18.0967 27.2883C19.6583 29.7693 21.6408 32 24.7443 32C31.061 32 31.322 25.1104 31.322 25.1104H28.9206V25.1104ZM14.199 25.5803C9.84532 25.5803 6.31603 20.3681 6.31603 13.9386C6.31603 7.50917 9.84532 2.29702 14.199 2.29702C18.5526 2.29702 22.0818 7.50917 22.0818 13.9386C22.0818 16.4953 21.5233 18.859 20.5772 20.7795C19.5085 19.2537 18.2257 17.9544 16.3915 17.5407C13.1378 16.8071 10.3358 18.2716 9.44831 19.0025L10.2836 20.7252C10.2836 20.7252 11.128 20.2398 13.2217 20.7246C14.5409 21.0301 15.5661 22.8609 16.7409 24.9614C15.9435 25.3624 15.0885 25.5803 14.199 25.5803Z" fill="#CF2217"/>
</g>
<defs>
<clipPath id="clip0_120_269">
<rect width="32" height="32" fill="white"/>
</clipPath>
</defs>
</svg>
