<svg width="48" height="48" viewBox="0 0 48 48" fill="none" xmlns="http://www.w3.org/2000/svg">
<g clip-path="url(#clip0_74_297)">
<path fill-rule="evenodd" clip-rule="evenodd" d="M18.7078 33.1102C17.2484 32.0373 15.9585 30.7474 14.8856 29.288L11.0448 32.9453L15.0504 36.951L18.7078 33.1102Z" fill="#E2C4FF"/>
<path fill-rule="evenodd" clip-rule="evenodd" d="M29.2453 32.8111C36.9903 32.8111 43.3071 26.4943 43.3071 18.7493C42.5127 0.0930362 15.9751 0.0984721 15.1835 18.7494C15.1835 26.4943 21.5002 32.8111 29.2453 32.8111Z" fill="#E2C4FF"/>
<path d="M29.2467 0.00033474C14.3577 -0.087036 5.34097 16.9478 13.6606 29.1601L1.20567 41.0202C1.20014 41.0255 1.1947 41.0308 1.18927 41.0362C-0.388657 42.5489 -0.388563 45.294 1.18927 46.8068C2.78022 48.3976 5.36891 48.3976 6.95986 46.8068C6.9653 46.8013 6.97055 46.7959 6.97589 46.7904L18.8359 34.3354C31.0528 42.6566 48.0838 33.6342 47.9958 18.7491C47.9958 8.41108 39.585 0.00033474 29.2467 0.00033474ZM5.62652 45.4885C4.76594 46.3409 3.37241 46.3384 2.51511 45.481C1.66737 44.669 1.66409 43.1856 2.50761 42.3696L14.7892 30.6745C15.5512 31.5966 16.3995 32.4449 17.3215 33.2068L5.62652 45.4885ZM29.2467 35.6235C19.9423 35.6235 12.3725 28.0537 12.3725 18.7493C13.2995 -3.63661 45.1974 -3.63005 46.1209 18.7494C46.1209 28.0538 38.5511 35.6235 29.2467 35.6235Z" fill="#6025D8"/>
<path d="M33.3878 17.7373C33.7358 17.0827 33.933 16.3363 33.933 15.5446V13.6697C33.6748 7.44984 24.8142 7.45462 24.5584 13.6697V15.5446C24.5584 16.3363 24.7557 17.0826 25.1037 17.7373C23.025 19.1242 21.7461 21.4881 21.7461 23.9816V25.704C21.7461 26.2218 22.1659 26.6415 22.6835 26.6415H35.8078C36.3255 26.6415 36.7453 26.2218 36.7453 25.704V23.9816C36.7453 21.488 35.4665 19.1241 33.3878 17.7373ZM26.4333 13.6697C26.4333 12.1189 27.6949 10.8573 29.2456 10.8573H29.2457C30.7965 10.8573 32.0581 12.1189 32.0581 13.6697V15.5446C31.9032 19.2764 26.5868 19.2737 26.4333 15.5446V13.6697ZM34.8704 24.7666H23.621V23.9816C23.621 22.0483 24.6486 20.2177 26.3061 19.193C27.9324 20.5666 30.5595 20.5663 32.1854 19.193C33.8427 20.2177 34.8704 22.0483 34.8704 23.9816V24.7666Z" fill="#6025D8"/>
</g>
<defs>
<clipPath id="clip0_74_297">
<rect width="48" height="48" fill="white"/>
</clipPath>
</defs>
</svg>
