<svg width="48" height="48" viewBox="0 0 48 48" fill="none" xmlns="http://www.w3.org/2000/svg">
<g clip-path="url(#clip0_74_277)">
<path fill-rule="evenodd" clip-rule="evenodd" d="M33.5883 22.3518C35.7828 20.1574 35.7827 16.5995 33.5883 14.4049C31.3937 12.2104 27.8358 12.2104 25.6413 14.4049C20.5798 19.8852 28.1111 27.4125 33.5883 22.3518Z" fill="#B2F0FB"/>
<path fill-rule="evenodd" clip-rule="evenodd" d="M14.1627 36.892L11.1009 33.8302C8.4987 34.3524 6.04038 35.605 4.04972 37.5956C1.22245 40.4229 -0.115987 44.1937 0.0125845 47.9804C6.60936 48.3489 12.9743 43.4694 14.1627 36.892Z" fill="#B2F0FB"/>
<path d="M47.4014 1.25452C47.3148 0.931363 47.0624 0.678995 46.7392 0.592375C36.1225 -2.59411 23.1384 7.62693 16.0865 18.0391C11.284 17.4327 6.30484 19.1386 2.8939 22.584C1.91046 23.5675 1.05915 24.6769 0.363758 25.8814C0.221327 26.1281 0.198946 26.426 0.302796 26.6912C0.406646 26.9563 0.62549 27.1597 0.897523 27.2441L9.70568 29.9742C9.43795 30.7237 9.20319 31.4613 9.00392 32.1831C8.91421 32.5081 9.00598 32.8561 9.24439 33.0946L14.8994 38.7496C15.138 38.9889 15.4896 39.0795 15.8108 38.99C16.5326 38.7908 17.2703 38.5559 18.0198 38.2883L20.7498 47.0964C20.8341 47.3685 21.0376 47.5873 21.3028 47.6912C21.5672 47.7948 21.8656 47.7728 22.1125 47.6302C23.3171 46.9348 24.4265 46.0835 25.41 45.1001C27.2163 43.2938 28.5266 41.1532 29.3048 38.7377C30.0096 36.5495 30.2327 34.196 29.9548 31.9074C40.3693 24.8564 50.589 11.8623 47.4014 1.25452ZM2.62084 25.8175C3.09532 25.1356 3.62984 24.4965 4.2181 23.9083C7.03161 21.0948 10.9367 19.6148 14.8827 19.8143C13.0593 22.6082 11.5202 25.4725 10.3815 28.2228L2.62084 25.8175ZM10.9588 32.1605C11.2968 31.028 11.7318 29.8384 12.2541 28.6127L19.3811 35.7397C18.1554 36.2619 16.9657 36.697 15.8333 37.035L10.9588 32.1605ZM24.0855 43.7756C23.4973 44.3637 22.8581 44.8983 22.1763 45.3728L19.7709 37.6122C22.522 36.4731 25.3871 34.9335 28.1819 33.1093C28.3979 37.0902 26.9416 40.9195 24.0855 43.7756ZM21.2023 34.9122L13.0816 26.7914C17.0716 18.5112 24.6444 9.10733 32.9814 4.60076C33.5611 7.14149 34.8312 9.44136 36.6917 11.3019C38.5522 13.1625 40.8521 14.4327 43.3929 15.0124C38.8863 23.3494 29.4825 30.9221 21.2023 34.9122ZM44.2528 13.279C39.3915 12.3582 35.6356 8.60222 34.7148 3.74093C38.3538 2.09909 42.099 1.44734 45.7237 2.27018C46.5464 5.89482 45.8947 9.64007 44.2528 13.279Z" fill="#6025D8"/>
</g>
<defs>
<clipPath id="clip0_74_277">
<rect width="48" height="48" fill="white"/>
</clipPath>
</defs>
</svg>
