<svg width="168" height="24" viewBox="0 0 168 24" fill="none" xmlns="http://www.w3.org/2000/svg">
<path d="M12.4747 18.6591C12.1825 18.5046 11.8328 18.5044 11.5405 18.6587L7.00318 21.0531C6.26976 21.4402 5.41104 20.8177 5.55074 20.0003L6.41934 14.9178C6.47468 14.594 6.36745 14.2637 6.13248 14.0341L2.44686 10.4331C1.85446 9.85428 2.18217 8.84746 3.00176 8.72823L8.07954 7.98956C8.40571 7.94211 8.68755 7.73699 8.83298 7.44121L11.1026 2.82516C11.4689 2.08013 12.5311 2.08013 12.8974 2.82516L15.167 7.44121C15.3124 7.73699 15.5943 7.94211 15.9205 7.98956L20.9982 8.72823C21.8178 8.84746 22.1455 9.85428 21.5531 10.4331L17.8675 14.0341C17.6326 14.2637 17.5253 14.594 17.5807 14.9178L18.4489 19.9979C18.5886 20.8158 17.729 21.4383 16.9956 21.0503L12.4747 18.6591Z" fill="#6E2CF4"/>
<path d="M48.4747 18.6591C48.1825 18.5046 47.8328 18.5044 47.5405 18.6587L43.0032 21.0531C42.2698 21.4402 41.411 20.8177 41.5507 20.0003L42.4193 14.9178C42.4747 14.594 42.3674 14.2637 42.1325 14.0341L38.4469 10.4331C37.8545 9.85428 38.1822 8.84746 39.0018 8.72823L44.0795 7.98956C44.4057 7.94211 44.6876 7.73699 44.833 7.44121L47.1026 2.82516C47.4689 2.08013 48.5311 2.08013 48.8974 2.82516L51.167 7.44121C51.3124 7.73699 51.5943 7.94211 51.9205 7.98956L56.9982 8.72823C57.8178 8.84746 58.1455 9.85428 57.5531 10.4331L53.8675 14.0341C53.6326 14.2637 53.5253 14.594 53.5807 14.9178L54.4489 19.9979C54.5886 20.8158 53.729 21.4383 52.9956 21.0503L48.4747 18.6591Z" fill="#6E2CF4"/>
<path d="M84.4747 18.6591C84.1825 18.5046 83.8328 18.5044 83.5405 18.6587L79.0032 21.0531C78.2698 21.4402 77.411 20.8177 77.5507 20.0003L78.4193 14.9178C78.4747 14.594 78.3674 14.2637 78.1325 14.0341L74.4469 10.4331C73.8545 9.85428 74.1822 8.84746 75.0018 8.72823L80.0795 7.98956C80.4057 7.94211 80.6876 7.73699 80.833 7.44121L83.1026 2.82516C83.4689 2.08013 84.5311 2.08013 84.8974 2.82516L87.167 7.44121C87.3124 7.73699 87.5943 7.94211 87.9205 7.98956L92.9982 8.72823C93.8178 8.84746 94.1455 9.85428 93.5531 10.4331L89.8675 14.0341C89.6326 14.2637 89.5253 14.594 89.5807 14.9178L90.4489 19.9979C90.5886 20.8158 89.729 21.4383 88.9956 21.0503L84.4747 18.6591Z" fill="#6E2CF4"/>
<path d="M120.475 18.6591C120.183 18.5046 119.833 18.5044 119.54 18.6587L115.003 21.0531C114.27 21.4402 113.411 20.8177 113.551 20.0003L114.419 14.9178C114.475 14.594 114.367 14.2637 114.132 14.0341L110.447 10.4331C109.854 9.85428 110.182 8.84746 111.002 8.72823L116.08 7.98956C116.406 7.94211 116.688 7.73699 116.833 7.44121L119.103 2.82516C119.469 2.08013 120.531 2.08013 120.897 2.82516L123.167 7.44121C123.312 7.73699 123.594 7.94211 123.92 7.98956L128.998 8.72823C129.818 8.84746 130.146 9.85428 129.553 10.4331L125.868 14.0341C125.633 14.2637 125.525 14.594 125.581 14.9178L126.449 19.9979C126.589 20.8158 125.729 21.4383 124.996 21.0503L120.475 18.6591Z" fill="#6E2CF4"/>
<path d="M156.475 18.6591C156.183 18.5046 155.833 18.5044 155.54 18.6587L151.003 21.0531C150.27 21.4402 149.411 20.8177 149.551 20.0003L150.419 14.9178C150.475 14.594 150.367 14.2637 150.132 14.0341L146.447 10.4331C145.854 9.85428 146.182 8.84746 147.002 8.72823L152.08 7.98956C152.406 7.94211 152.688 7.73699 152.833 7.44121L155.103 2.82516C155.469 2.08013 156.531 2.08013 156.897 2.82516L159.167 7.44121C159.312 7.73699 159.594 7.94211 159.92 7.98956L164.998 8.72823C165.818 8.84746 166.146 9.85428 165.553 10.4331L161.868 14.0341C161.633 14.2637 161.525 14.594 161.581 14.9178L162.449 19.9979C162.589 20.8158 161.729 21.4383 160.996 21.0503L156.475 18.6591Z" fill="#6E2CF4"/>
</svg>
