<svg width="48" height="48" viewBox="0 0 48 48" fill="none" xmlns="http://www.w3.org/2000/svg">
<path fill-rule="evenodd" clip-rule="evenodd" d="M20.8625 5.67647C23.4929 4.15781 32.5463 3.51544 32.5463 12.8557C32.5463 18.7504 32.7083 22.435 32.9996 25.7275L37.5185 25.1966C36.0215 17.7993 38.9373 8.06597 32.917 2.92078C28.6267 -0.745967 21.9835 -0.742686 17.0645 1.72135L19.4033 6.63375C19.9237 6.2611 20.4133 5.93588 20.8625 5.67647Z" fill="#E2C4FF"/>
<path d="M34.3592 29.3944C34.2618 28.6871 34.1611 27.9557 34.0825 27.1938C33.7233 23.7153 33.4841 19.9459 33.4841 12.8556C33.4841 8.224 31.3757 6.03447 29.607 5.01325C26.3766 3.14828 22.1999 3.82188 20.394 4.86456C18.954 5.69603 17.1691 7.13397 15.2793 8.65638C13.5859 10.0208 11.8347 11.4317 10.2029 12.5146C6.71798 14.6625 7.29089 20.7026 11.0166 22.0682C11.8784 22.3692 13.5922 22.5869 15.5587 20.7826C16.6764 20.5532 18.0475 20.8507 19.494 21.1643C20.1239 21.301 20.7641 21.4398 21.4032 21.5379C20.8794 22.5759 20.0165 23.8084 19.116 25.0946C16.4862 28.8504 13.2134 33.5248 14.513 38.3748C14.6452 38.8792 15.1746 39.1724 15.6613 39.0378C16.1613 38.9037 16.4581 38.3897 16.3242 37.8896C14.7454 32.2435 21.2318 26.5085 23.4053 21.6616C23.4401 21.6596 23.4748 21.6573 23.5094 21.6548C25.1265 21.5373 26.367 20.8488 27.3015 19.55C27.6039 19.1298 27.5083 18.5439 27.0881 18.2415C26.6677 17.939 26.082 18.0348 25.7795 18.4548C24.5291 20.1928 22.7208 19.9454 19.8914 19.3319C18.1971 18.9644 16.4452 18.5842 14.8458 19.0263C14.6931 19.0685 14.5535 19.1488 14.4402 19.2595C13.7463 19.9378 12.6962 20.6685 11.6346 20.2978C10.704 19.9728 9.93876 18.8286 9.77367 17.5151C9.6877 16.8308 9.65836 15.1261 11.2396 14.0765C12.9436 12.9457 14.729 11.5073 16.4557 10.1163C18.2873 8.64063 20.0173 7.24694 21.3315 6.48803C22.5273 5.79766 26.0186 5.10606 28.6694 6.63681C30.6201 7.76303 31.6091 9.85525 31.6091 12.8553C31.6577 21.4593 31.8119 24.2387 32.5017 29.6499C32.9141 32.6463 33.24 35.0131 31.6615 37.747C31.4025 38.1954 31.5562 38.7687 32.0046 39.0276C32.445 39.2842 33.0249 39.137 33.2852 38.6845C35.1852 35.3943 34.7839 32.4798 34.3592 29.3944Z" fill="#6025D8"/>
<path d="M21.9697 10.5148L20.8924 10.8035C20.3922 10.9374 20.0954 11.4515 20.2295 11.9516C20.3617 12.4558 20.8911 12.7492 21.3776 12.6145L22.455 12.3259C22.9552 12.1919 23.252 11.6779 23.1179 11.1777C22.9839 10.6776 22.4697 10.3806 21.9697 10.5148Z" fill="#6025D8"/>
<path fill-rule="evenodd" clip-rule="evenodd" d="M32.2528 37.678H14.7973C13.5069 37.678 12.4512 38.7337 12.4512 40.0241V42.3703H35.9127V40.0241C35.9127 38.7337 34.8569 37.678 33.5666 37.678H32.2528Z" fill="#E2C4FF"/>
<path d="M36.8512 41.4326H11.5128C7.15556 41.6135 7.15884 47.8206 11.5128 47.9999H36.8512C41.2085 47.8191 41.2051 41.6118 36.8512 41.4326ZM36.8512 46.1249H11.5128C9.64359 46.0473 9.645 43.3845 11.5128 43.3076H36.8512C38.7203 43.3851 38.7189 46.0479 36.8512 46.1249Z" fill="#6025D8"/>
</svg>
