<svg width="128" height="128" viewBox="0 0 128 128" fill="none" xmlns="http://www.w3.org/2000/svg">
<g id="Succes">
<g id="Group">
<path id="Vector" d="M109.456 21.8962C109.415 21.3046 109.194 20.5405 108.735 19.686C108.284 18.8397 107.588 17.9031 106.72 17.0486C105.868 16.1777 104.934 15.4875 104.09 15.0274C103.238 14.5673 102.477 14.3537 101.887 14.3044C102.477 14.2633 103.238 14.0415 104.09 13.5814C104.934 13.1295 105.868 12.4311 106.72 11.5602C107.588 10.7057 108.276 9.76907 108.735 8.9228C109.194 8.06832 109.406 7.30421 109.456 6.71265C109.497 7.30421 109.718 8.06832 110.176 8.9228C110.627 9.76907 111.323 10.7057 112.192 11.5602C113.043 12.4311 113.977 13.1213 114.821 13.5814C115.673 14.0415 116.435 14.2551 117.025 14.3044C116.435 14.3455 115.673 14.5673 114.821 15.0274C113.977 15.4793 113.043 16.1777 112.192 17.0486C111.323 17.9031 110.635 18.8397 110.176 19.686C109.718 20.5405 109.505 21.3128 109.456 21.8962Z" fill="#73CE19"/>
<path id="Vector_2" d="M18.5059 121.008C18.465 120.416 18.2438 119.652 17.7851 118.798C17.3345 117.952 16.6383 117.015 15.77 116.16C14.9181 115.29 13.9842 114.599 13.1405 114.139C12.2886 113.679 11.5268 113.466 10.937 113.416C11.5268 113.375 12.2886 113.153 13.1405 112.693C13.9842 112.241 14.9181 111.543 15.77 110.672C16.6383 109.818 17.3264 108.881 17.7851 108.035C18.2438 107.18 18.4568 106.416 18.5059 105.824C18.5469 106.416 18.7681 107.18 19.2268 108.035C19.6773 108.881 20.3736 109.818 21.2419 110.672C22.0938 111.543 23.0276 112.233 23.8713 112.693C24.7233 113.153 25.4851 113.367 26.0748 113.416C25.4851 113.457 24.7233 113.679 23.8713 114.139C23.0276 114.591 22.0938 115.29 21.2419 116.16C20.3736 117.015 19.6855 117.952 19.2268 118.798C18.7681 119.652 18.5551 120.425 18.5059 121.008Z" fill="#73CE19"/>
<path id="Vector_3" d="M95.5139 7.73965C95.4894 7.43565 95.3829 7.04949 95.1453 6.61403C94.916 6.17857 94.5637 5.70203 94.1214 5.26658C93.6872 4.8229 93.2121 4.46961 92.778 4.23955C92.3438 4.00128 91.9507 3.89447 91.6558 3.86983C91.9588 3.84518 92.3438 3.73837 92.778 3.5001C93.2121 3.27004 93.6872 2.91675 94.1214 2.47307C94.5637 2.03761 94.916 1.56108 95.1453 1.12562C95.3829 0.69016 95.4894 0.295783 95.5139 0C95.5385 0.303999 95.645 0.69016 95.8826 1.12562C96.1119 1.56108 96.4642 2.03761 96.9065 2.47307C97.3406 2.91675 97.8157 3.27004 98.2499 3.5001C98.684 3.73837 99.0772 3.84518 99.3721 3.86983C99.069 3.89447 98.684 4.00128 98.2499 4.23955C97.8157 4.46961 97.3406 4.8229 96.9065 5.26658C96.4642 5.70203 96.1119 6.17857 95.8826 6.61403C95.6532 7.04949 95.5385 7.43565 95.5139 7.73965Z" fill="#73CE19"/>
<path id="Vector_4" d="M32.4969 127.992C32.4723 127.688 32.3658 127.302 32.1282 126.866C31.8989 126.431 31.5466 125.954 31.1043 125.519C30.6702 125.075 30.195 124.722 29.7609 124.492C29.3268 124.253 28.9336 124.147 28.6387 124.122C28.9418 124.097 29.3268 123.991 29.7609 123.752C30.195 123.522 30.6702 123.169 31.1043 122.725C31.5466 122.29 31.8989 121.813 32.1282 121.378C32.3658 120.942 32.4723 120.548 32.4969 120.252C32.5214 120.556 32.6279 120.942 32.8655 121.378C33.0948 121.813 33.4471 122.29 33.8894 122.725C34.3236 123.169 34.7987 123.522 35.2328 123.752C35.667 123.991 36.0601 124.097 36.355 124.122C36.052 124.147 35.667 124.253 35.2328 124.492C34.7987 124.722 34.3236 125.075 33.8894 125.519C33.4471 125.954 33.0948 126.431 32.8655 126.866C32.6361 127.302 32.5214 127.688 32.4969 127.992Z" fill="#73CE19"/>
<path id="Vector_5" d="M5.85818 43.9484C5.83361 43.6444 5.72712 43.2582 5.48957 42.8228C5.2602 42.3873 4.90797 41.9108 4.46563 41.4753C4.03148 41.0316 3.55638 40.6783 3.12223 40.4483C2.68808 40.21 2.29489 40.1032 2 40.0786C2.30308 40.0539 2.68808 39.9471 3.12223 39.7088C3.55638 39.4788 4.03148 39.1255 4.46563 38.6818C4.90797 38.2464 5.2602 37.7698 5.48957 37.3344C5.72712 36.8989 5.83361 36.5045 5.85818 36.2087C5.88276 36.5127 5.98925 36.8989 6.2268 37.3344C6.45616 37.7698 6.80839 38.2464 7.25073 38.6818C7.68488 39.1255 8.15998 39.4788 8.59413 39.7088C9.02828 39.9471 9.42147 40.0539 9.71636 40.0786C9.41328 40.1032 9.02828 40.21 8.59413 40.4483C8.15998 40.6783 7.68488 41.0316 7.25073 41.4753C6.80839 41.9108 6.45616 42.3873 6.2268 42.8228C5.99744 43.25 5.88276 43.6444 5.85818 43.9484Z" fill="#73CE19"/>
<path id="Vector_6" d="M17.9898 14.8959C19.0575 14.8959 19.923 14.0277 19.923 12.9568C19.923 11.886 19.0575 11.0178 17.9898 11.0178C16.9222 11.0178 16.0566 11.886 16.0566 12.9568C16.0566 14.0277 16.9222 14.8959 17.9898 14.8959Z" fill="#73CE19"/>
<path id="Vector_7" d="M42.6297 4.59289C43.6974 4.59289 44.5629 3.72476 44.5629 2.65386C44.5629 1.58297 43.6974 0.714844 42.6297 0.714844C41.5621 0.714844 40.6965 1.58297 40.6965 2.65386C40.6965 3.72476 41.5621 4.59289 42.6297 4.59289Z" fill="#73CE19"/>
<path id="Vector_8" d="M9.10189 64.0123C10.1696 64.0123 11.0351 63.1442 11.0351 62.0733C11.0351 61.0024 10.1696 60.1343 9.10189 60.1343C8.03422 60.1343 7.1687 61.0024 7.1687 62.0733C7.1687 63.1442 8.03422 64.0123 9.10189 64.0123Z" fill="#73CE19"/>
<path id="Vector_9" d="M83.2513 126.989C84.319 126.989 85.1845 126.121 85.1845 125.05C85.1845 123.979 84.319 123.111 83.2513 123.111C82.1836 123.111 81.3181 123.979 81.3181 125.05C81.3181 126.121 82.1836 126.989 83.2513 126.989Z" fill="#73CE19"/>
<path id="Vector_10" d="M119.4 107.32C120.468 107.32 121.333 106.452 121.333 105.381C121.333 104.31 120.468 103.442 119.4 103.442C118.333 103.442 117.467 104.31 117.467 105.381C117.467 106.452 118.333 107.32 119.4 107.32Z" fill="#73CE19"/>
<path id="Vector_11" d="M109.128 125.289C109.766 125.289 110.283 124.77 110.283 124.13C110.283 123.49 109.766 122.972 109.128 122.972C108.49 122.972 107.973 123.49 107.973 124.13C107.973 124.77 108.49 125.289 109.128 125.289Z" fill="#73CE19"/>
</g>
<g id="Group_2">
<g id="Group_3">
<path id="Vector_12" d="M64 112C57.5248 112 51.2349 110.728 45.3154 108.223C39.5973 105.807 34.4671 102.344 30.0617 97.9383C25.6564 93.5329 22.1933 88.3946 19.7772 82.6846C17.2725 76.7651 16 70.4752 16 64C16 57.5248 17.2725 51.2349 19.7772 45.3154C22.1933 39.5973 25.6564 34.4671 30.0617 30.0617C34.4671 25.6564 39.6054 22.1933 45.3154 19.7772C51.2349 17.2725 57.5248 16 64 16C70.4752 16 76.7651 17.2725 82.6846 19.7772C88.4027 22.1933 93.5329 25.6564 97.9383 30.0617C102.344 34.4671 105.807 39.6054 108.223 45.3154C110.728 51.2349 112 57.5248 112 64C112 70.4752 110.728 76.7651 108.223 82.6846C105.807 88.4027 102.344 93.5329 97.9383 97.9383C93.5329 102.344 88.3946 105.807 82.6846 108.223C76.7651 110.736 70.4752 112 64 112ZM64 24.0537C41.9732 24.0537 24.0537 41.9732 24.0537 64C24.0537 86.0268 41.9732 103.946 64 103.946C86.0268 103.946 103.946 86.0268 103.946 64C103.946 41.9732 86.0268 24.0537 64 24.0537Z" fill="#73CE19"/>
</g>
<g id="Group_4">
<path id="Vector_13" d="M59.7646 81.9998C58.3506 81.9998 56.9299 81.4453 55.8478 80.3296L43.8981 68.0084C41.7338 65.7769 41.228 62.8813 43.3922 60.6567C45.5565 58.4252 48.6534 59.2754 50.811 61.5069L59.7646 70.856L77.2001 52.1576C79.3644 49.9261 82.45 49.0763 84.6076 51.3078C86.7718 53.5393 86.2664 57.0494 84.1022 59.2741L63.6748 80.3364C62.5993 81.4385 61.1787 81.9998 59.7646 81.9998Z" fill="#73CE19"/>
</g>
</g>
</g>
</svg>
