<svg width="48" height="48" viewBox="0 0 48 48" fill="none" xmlns="http://www.w3.org/2000/svg">
<g clip-path="url(#clip0_74_287)">
<path fill-rule="evenodd" clip-rule="evenodd" d="M26.4916 20.8127C24.9383 20.8127 23.532 21.4424 22.5142 22.4603C19.0014 25.931 21.4903 32.0777 26.4917 32.0627C33.9528 31.7666 33.9512 21.108 26.4916 20.8127Z" fill="#FFBEBC"/>
<path fill-rule="evenodd" clip-rule="evenodd" d="M17.2115 17.1569C25.3089 8.96059 39.6525 14.768 39.6171 26.4378C39.6172 33.6864 33.741 39.5626 26.4923 39.5626C14.8215 39.5963 9.01522 25.2539 17.2115 17.1569ZM26.4923 9.56274C21.8324 9.56274 17.6136 11.4515 14.5599 14.5052C4.02165 24.9175 11.4883 43.3574 26.4925 43.3125C48.8757 42.4242 48.8708 10.4484 26.4923 9.56274Z" fill="#FFBEBC"/>
<path d="M26.4923 4.87525C20.8841 4.87525 15.769 7.02737 11.9297 10.5492L10.4918 9.11123L11.2665 6.48399C11.3636 6.15465 11.273 5.79859 11.0302 5.55587L5.74899 0.274687C5.51509 0.0407821 5.17524 -0.0526861 4.85472 0.0290634C4.53419 0.110719 4.28041 0.355218 4.18675 0.672372L3.39888 3.34423L0.727021 4.1321C0.409773 4.22566 0.165274 4.47944 0.083712 4.80007C0.00205621 5.1206 0.0954307 5.46034 0.329336 5.69434L5.61052 10.9755C5.85362 11.2194 6.21305 11.3085 6.53855 11.2119L9.16588 10.4371L10.6038 11.8751C-1.99743 25.4174 7.80313 48.0622 26.4926 47.9999C55.0968 46.8162 55.0905 6.05565 26.4923 4.87525ZM2.77104 5.48425L4.41897 4.99825C4.72422 4.90825 4.963 4.66947 5.053 4.36423L5.53899 2.7163L9.31053 6.48784L8.68016 8.62542L6.54258 9.25579L2.77104 5.48425ZM26.4923 46.125C9.46325 46.1814 0.503147 25.5814 11.9304 13.2016L18.5706 19.8419C13.0008 26.4191 17.792 36.7882 26.4924 36.75C32.1786 36.7501 36.8047 32.1239 36.8047 26.4376C36.8417 17.7369 26.4737 12.946 19.8965 18.516L13.2563 11.8757C25.6422 0.44578 46.2374 9.41498 46.1797 26.4379C46.1798 37.2933 37.348 46.125 26.4923 46.125ZM25.8294 27.1005C26.7426 27.9456 28 26.687 27.1553 25.7746L21.2285 19.8479C26.6393 15.4492 34.9633 19.4014 34.9297 26.4377C34.9298 31.09 31.1447 34.8751 26.4924 34.8751C19.4558 34.9077 15.5038 26.5845 19.9027 21.1738L25.8294 27.1005Z" fill="#6025D8"/>
</g>
<defs>
<clipPath id="clip0_74_287">
<rect width="48" height="48" fill="white"/>
</clipPath>
</defs>
</svg>
