<svg width="40" height="40" viewBox="0 0 40 40" fill="none" xmlns="http://www.w3.org/2000/svg">
<rect width="40" height="40" fill="#212121"/>
<g id="Main, Desktop" clip-path="url(#clip0_74_172)">
<rect width="1440" height="8554" transform="translate(-764 -6351)" fill="white"/>
<g id="Group 1000002605">
<rect id="Rectangle 32" opacity="0.05" x="-32" y="-32" width="282" height="194" rx="24" fill="#1E1E1E"/>
<g id="wire-transfer 1">
<path id="Vector" d="M17.0988 6.07847H17.3402L17.1695 5.90776L16.0162 4.75446C15.5857 4.32399 15.5857 3.62679 16.0162 3.19649C16.4467 2.76614 17.1439 2.76603 17.5742 3.19646L17.5742 3.19647L20.7791 6.4014C21.0941 6.7164 21.1887 7.1905 21.018 7.60225C20.8473 8.01407 20.4456 8.28232 20 8.28232H8.78277C6.73937 8.28232 5.07723 9.94446 5.07723 11.9879V28.0125C5.07723 30.0559 6.73937 31.718 8.78277 31.718H13.5902C14.1985 31.718 14.692 32.2114 14.692 32.8197C14.692 33.4281 14.1985 33.9216 13.5902 33.9216H8.78277C5.52427 33.9216 2.87354 31.2708 2.87354 28.0123V11.9877C2.87354 8.7292 5.52427 6.07847 8.78277 6.07847H17.0988ZM22.9014 33.9217H22.66L22.8307 34.0924L23.984 35.2457L24.0547 35.175L23.984 35.2458C24.4145 35.676 24.4145 36.3732 23.984 36.8037C23.7687 37.019 23.4878 37.1265 23.2049 37.1265C22.9221 37.1265 22.6411 37.019 22.4259 36.8037L19.2209 33.5988C18.9059 33.2838 18.8114 32.8097 18.982 32.398C19.1528 31.9861 19.5546 31.7179 20 31.7179H31.2173C33.2598 31.7179 34.9228 30.0558 34.9228 28.0123V11.9877C34.9228 9.94429 33.2598 8.28216 31.2173 8.28216H26.4099C25.8015 8.28216 25.308 7.78867 25.308 7.18032C25.308 6.57196 25.8015 6.07847 26.4099 6.07847H31.2173C34.475 6.07847 37.1267 8.72921 37.1267 11.9877V28.0125C37.1267 31.271 34.4751 33.9217 31.2174 33.9217H22.9014Z" fill="#4F4F4F" stroke="white" stroke-width="0.2"/>
<path id="Vector_2" d="M20.8291 25.3244L20.9235 25.3191C22.1042 25.2526 23.132 24.4835 23.5107 23.3512C23.755 22.6169 23.6989 21.8311 23.3529 21.1382L20.8291 25.3244ZM20.8291 25.3244V25.4189M20.8291 25.3244V25.4189M16.9231 22.0287C17.3565 21.8845 17.8269 22.1184 17.9715 22.5525L17.9715 22.5526C18.1957 23.2235 18.821 23.6744 19.5286 23.6744H20.761C21.2949 23.6744 21.7687 23.3337 21.9371 22.8264C22.0421 22.5123 22.0186 22.1759 21.87 21.8801C21.7227 21.5835 21.4671 21.3623 21.1537 21.2578L18.323 20.3145C18.323 20.3145 18.323 20.3145 18.323 20.3145C16.8079 19.8094 15.9854 18.1657 16.4905 16.6494C16.8679 15.5168 17.8956 14.7475 19.077 14.681L19.1714 14.6757V14.5812V13.8078C19.1714 13.3501 19.5426 12.9789 20.0002 12.9789C20.4579 12.9789 20.8291 13.3501 20.8291 13.8078V14.6042V14.6916L20.9157 14.7033C22.1496 14.8703 23.1985 15.717 23.6015 16.923C23.746 17.3571 23.5109 17.8264 23.0772 17.9712C22.6347 18.1155 22.1725 17.8805 22.0279 17.4475C21.805 16.7764 21.1789 16.3256 20.472 16.3256H19.2396C18.705 16.3256 18.232 16.6663 18.0629 17.1735L18.0629 17.1735C17.8471 17.8222 18.1988 18.5259 18.8469 18.7423L18.847 18.7423L21.6776 19.6856L21.6776 19.6856C22.4119 19.93 23.0066 20.4459 23.3528 21.1382L16.9231 22.0287ZM16.9231 22.0287C16.4886 22.1733 16.2539 22.6427 16.3991 23.077M16.9231 22.0287L16.3991 23.077M20.8291 25.4189V26.1924C20.8291 26.65 20.4579 27.0212 20.0002 27.0212C19.5427 27.0212 19.1715 26.6499 19.1715 26.1922V25.3958V25.3084L19.0849 25.2967C17.8504 25.1298 16.8012 24.2829 16.3992 23.0771L16.3991 23.077M20.8291 25.4189L16.3991 23.077" fill="#4F4F4F" stroke="white" stroke-width="0.2"/>
</g>
</g>
</g>
<defs>
<clipPath id="clip0_74_172">
<rect width="1440" height="8554" fill="white" transform="translate(-764 -6351)"/>
</clipPath>
</defs>
</svg>
