<?xml version="1.0" standalone="no"?>
<!DOCTYPE svg PUBLIC "-//W3C//DTD SVG 20010904//EN"
 "http://www.w3.org/TR/2001/REC-SVG-20010904/DTD/svg10.dtd">
<svg version="1.0" xmlns="http://www.w3.org/2000/svg"
 width="576.000000pt" height="576.000000pt" viewBox="0 0 576.000000 576.000000"
 preserveAspectRatio="xMidYMid meet">
<metadata>
Created by potrace 1.14, written by Peter Selinger 2001-2017
</metadata>
<g transform="translate(0.000000,576.000000) scale(0.100000,-0.100000)"
fill="#000000" stroke="none">
<path d="M556 3385 c-207 -53 -372 -242 -390 -449 -5 -51 4 -71 19 -47 3 6 26
13 50 17 40 6 45 9 45 33 1 82 79 212 165 271 168 116 388 97 528 -45 154
-157 159 -405 10 -560 -84 -88 -180 -129 -303 -129 -97 0 -178 29 -261 96 -84
68 -209 122 -209 90 0 -19 65 -108 113 -156 122 -122 337 -176 507 -126 214
62 371 265 373 485 1 94 -5 135 -33 205 -55 139 -179 255 -325 305 -69 23
-215 28 -289 10z"/>
<path d="M1750 3245 c-165 -44 -261 -170 -262 -344 0 -74 8 -115 36 -177 81
-178 332 -250 532 -154 l61 30 -1 142 -1 143 -108 1 c-101 1 -109 0 -116 -19
-4 -11 -6 -31 -3 -44 4 -20 10 -23 51 -24 25 -1 52 -1 59 0 9 1 12 -19 12 -73
l0 -74 -37 -13 c-53 -17 -149 -19 -199 -4 -82 25 -140 92 -160 186 -28 137 19
257 122 309 70 35 179 34 253 -4 29 -14 61 -26 70 -26 16 0 61 65 51 73 -27
21 -73 47 -110 61 -55 22 -188 28 -250 11z"/>
<path d="M2255 2893 l0 -358 208 0 207 -1 0 48 0 48 -82 1 c-46 1 -113 1 -150
1 l-68 0 0 309 0 309 -58 0 -57 0 0 -357z"/>
<path d="M2770 2892 l0 -358 220 0 c219 0 221 0 226 22 3 12 4 33 2 45 -3 24
-3 24 -165 27 -135 2 -163 5 -164 17 0 8 0 44 0 80 0 36 0 79 0 95 l1 30 130
0 130 0 0 45 0 45 -130 0 c-123 0 -130 1 -131 20 0 11 0 49 0 85 0 36 0 75 0
88 l1 23 164 -1 165 0 -2 47 -1 48 -223 0 -223 0 0 -358z"/>
<path d="M3403 2903 c-76 -191 -138 -352 -138 -358 0 -16 106 -10 116 6 5 8
21 49 36 92 l28 77 155 0 156 0 29 -81 c33 -91 51 -107 110 -105 33 2 40 6 38
22 -1 10 -63 170 -136 354 l-134 335 -61 3 -60 3 -139 -348z m286 -7 c16 -43
28 -82 26 -86 -3 -5 -56 -7 -117 -7 -95 2 -113 4 -110 17 1 8 19 58 38 110 59
157 62 164 69 185 4 14 13 -1 34 -60 16 -44 43 -116 60 -159z"/>
<path d="M4030 2892 l0 -358 178 2 c154 1 184 5 233 23 79 30 141 88 181 168
30 61 33 75 33 162 0 59 -5 109 -14 131 -42 105 -113 175 -213 209 -42 15 -89
19 -226 20 l-172 2 0 -359z m345 253 c32 -9 82 -40 103 -65 55 -66 75 -196 46
-293 -20 -66 -85 -130 -146 -145 -65 -16 -225 -16 -230 1 -3 10 -2 387 1 488
l1 26 98 -2 c53 -1 111 -6 127 -10z"/>
<path d="M4789 3243 c0 -10 0 -648 0 -683 l1 -26 205 0 c225 0 214 -3 207 64
-4 27 -8 32 -31 33 -14 0 -80 1 -146 2 l-120 2 -1 295 c-1 162 -2 301 -3 308
-1 13 -110 18 -112 5z"/>
<path d="M5132 3228 c8 -13 66 -108 129 -213 l114 -190 5 -145 5 -145 55 0 55
0 2 141 2 141 112 184 c61 101 120 199 130 217 l19 32 -59 0 c-68 0 -69 -1
-134 -115 -25 -44 -57 -100 -71 -125 -15 -25 -31 -57 -37 -72 -13 -34 -25 -35
-36 -4 -4 12 -46 89 -92 170 l-84 146 -65 0 c-64 0 -64 0 -50 -22z"/>
<path d="M763 3067 c-51 -18 -93 -35 -93 -39 0 -5 14 -14 31 -21 l31 -12 -48
-65 c-26 -36 -50 -67 -53 -70 -4 -3 -24 -29 -45 -57 -47 -66 -57 -66 -187 -13
-139 57 -150 55 -289 -36 -105 -69 -118 -88 -30 -44 68 35 165 43 224 19 17
-7 71 -32 119 -56 49 -23 104 -45 123 -49 44 -8 49 -4 194 198 l84 117 27 -15
c16 -8 30 -14 33 -14 3 0 3 24 1 53 -2 28 -4 71 -4 95 -1 27 -5 42 -13 41 -7
0 -55 -15 -105 -32z"/>
</g>
</svg>
